<svg width="167" height="40" viewBox="0 0 167 40" fill="none" xmlns="http://www.w3.org/2000/svg">
<path d="M34.1422 5.85781C30.3647 2.08031 25.3422 0 20 0C14.6578 0 9.63531 2.08031 5.85781 5.85781C2.08031 9.63531 0 14.6578 0 20C0 25.3422 2.08039 30.3646 5.85781 34.1422C9.63523 37.9198 14.6578 40 20 40C25.3422 40 30.3647 37.9197 34.1422 34.1422C37.9197 30.3647 40 25.3422 40 20C40 14.6578 37.9196 9.63539 34.1422 5.85781Z" fill="#33CC95"/>
<path d="M20.5714 8V33.1429" stroke="white" stroke-width="2" stroke-linecap="round" stroke-linejoin="round"/>
<path d="M26.2857 12.5714H17.7143C16.6534 12.5714 15.636 12.9929 14.8859 13.743C14.1357 14.4931 13.7143 15.5106 13.7143 16.5714C13.7143 17.6323 14.1357 18.6497 14.8859 19.3999C15.636 20.15 16.6534 20.5714 17.7143 20.5714H23.4286C24.4894 20.5714 25.5069 20.9929 26.257 21.743C27.0072 22.4932 27.4286 23.5106 27.4286 24.5714C27.4286 25.6323 27.0072 26.6497 26.257 27.3999C25.5069 28.15 24.4894 28.5714 23.4286 28.5714H13.7143" stroke="white" stroke-width="2" stroke-linecap="round" stroke-linejoin="round"/>
<g filter="url(#filter0_d)">
<path d="M54.36 24.52H59.24V26H52.54V12.06H54.36V24.52ZM68.5128 26L65.1928 20.3H62.9928V26H61.1728V12.06H65.6728C66.7261 12.06 67.6128 12.24 68.3328 12.6C69.0661 12.96 69.6128 13.4467 69.9728 14.06C70.3328 14.6733 70.5128 15.3733 70.5128 16.16C70.5128 17.12 70.2328 17.9667 69.6728 18.7C69.1261 19.4333 68.2995 19.92 67.1928 20.16L70.6928 26H68.5128ZM62.9928 18.84H65.6728C66.6595 18.84 67.3995 18.6 67.8928 18.12C68.3861 17.6267 68.6328 16.9733 68.6328 16.16C68.6328 15.3333 68.3861 14.6933 67.8928 14.24C67.4128 13.7867 66.6728 13.56 65.6728 13.56H62.9928V18.84ZM92.8128 12.16V26H90.9928V15.68L86.3928 26H85.1128L80.4928 15.66V26H78.6728V12.16H80.6328L85.7528 23.6L90.8728 12.16H92.8128ZM100.679 26.18C99.6527 26.18 98.7194 25.9467 97.8794 25.48C97.0527 25.0133 96.3994 24.3533 95.9194 23.5C95.4527 22.6333 95.2194 21.6333 95.2194 20.5C95.2194 19.38 95.4594 18.3933 95.9394 17.54C96.4327 16.6733 97.0994 16.0133 97.9394 15.56C98.7794 15.0933 99.7194 14.86 100.759 14.86C101.799 14.86 102.739 15.0933 103.579 15.56C104.419 16.0133 105.079 16.6667 105.559 17.52C106.053 18.3733 106.299 19.3667 106.299 20.5C106.299 21.6333 106.046 22.6333 105.539 23.5C105.046 24.3533 104.373 25.0133 103.519 25.48C102.666 25.9467 101.719 26.18 100.679 26.18ZM100.679 24.58C101.333 24.58 101.946 24.4267 102.519 24.12C103.093 23.8133 103.553 23.3533 103.899 22.74C104.259 22.1267 104.439 21.38 104.439 20.5C104.439 19.62 104.266 18.8733 103.919 18.26C103.573 17.6467 103.119 17.1933 102.559 16.9C101.999 16.5933 101.393 16.44 100.739 16.44C100.073 16.44 99.4594 16.5933 98.8994 16.9C98.3527 17.1933 97.9127 17.6467 97.5794 18.26C97.246 18.8733 97.0794 19.62 97.0794 20.5C97.0794 21.3933 97.2394 22.1467 97.5594 22.76C97.8927 23.3733 98.3327 23.8333 98.8794 24.14C99.426 24.4333 100.026 24.58 100.679 24.58ZM114.032 14.84C115.366 14.84 116.446 15.2467 117.272 16.06C118.099 16.86 118.512 18.02 118.512 19.54V26H116.712V19.8C116.712 18.7067 116.439 17.8733 115.892 17.3C115.346 16.7133 114.599 16.42 113.652 16.42C112.692 16.42 111.926 16.72 111.352 17.32C110.792 17.92 110.512 18.7933 110.512 19.94V26H108.692V15.04H110.512V16.6C110.872 16.04 111.359 15.6067 111.972 15.3C112.599 14.9933 113.286 14.84 114.032 14.84ZM131.485 20.1C131.485 20.4467 131.465 20.8133 131.425 21.2H122.665C122.732 22.28 123.099 23.1267 123.765 23.74C124.445 24.34 125.265 24.64 126.225 24.64C127.012 24.64 127.665 24.46 128.185 24.1C128.719 23.7267 129.092 23.2333 129.305 22.62H131.265C130.972 23.6733 130.385 24.5333 129.505 25.2C128.625 25.8533 127.532 26.18 126.225 26.18C125.185 26.18 124.252 25.9467 123.425 25.48C122.612 25.0133 121.972 24.3533 121.505 23.5C121.039 22.6333 120.805 21.6333 120.805 20.5C120.805 19.3667 121.032 18.3733 121.485 17.52C121.939 16.6667 122.572 16.0133 123.385 15.56C124.212 15.0933 125.159 14.86 126.225 14.86C127.265 14.86 128.185 15.0867 128.985 15.54C129.785 15.9933 130.399 16.62 130.825 17.42C131.265 18.2067 131.485 19.1 131.485 20.1ZM129.605 19.72C129.605 19.0267 129.452 18.4333 129.145 17.94C128.839 17.4333 128.419 17.0533 127.885 16.8C127.365 16.5333 126.785 16.4 126.145 16.4C125.225 16.4 124.439 16.6933 123.785 17.28C123.145 17.8667 122.779 18.68 122.685 19.72H129.605ZM143.328 15.04L136.728 31.16H134.848L137.008 25.88L132.588 15.04H134.608L138.048 23.92L141.448 15.04H143.328Z" fill="white"/>
</g>
<defs>
<filter id="filter0_d" x="48.54" y="12.06" width="98.7877" height="27.1" filterUnits="userSpaceOnUse" color-interpolation-filters="sRGB">
<feFlood flood-opacity="0" result="BackgroundImageFix"/>
<feColorMatrix in="SourceAlpha" type="matrix" values="0 0 0 0 0 0 0 0 0 0 0 0 0 0 0 0 0 0 127 0" result="hardAlpha"/>
<feOffset dy="4"/>
<feGaussianBlur stdDeviation="2"/>
<feComposite in2="hardAlpha" operator="out"/>
<feColorMatrix type="matrix" values="0 0 0 0 0 0 0 0 0 0 0 0 0 0 0 0 0 0 0.25 0"/>
<feBlend mode="normal" in2="BackgroundImageFix" result="effect1_dropShadow"/>
<feBlend mode="normal" in="SourceGraphic" in2="effect1_dropShadow" result="shape"/>
</filter>
</defs>
</svg>
